# xmcd
#
# Track frame offsets:
#	182
#	14622
#	29742
#	55510
#	79912
#	95105
#	105602
#	121055
#	136127
#	146260
#	161760
#	170820
#	185387
#	201492
#	209815
#	232392
#	245740
#	257450
#	268815
#	284265
#
# Disc length: 3995 seconds
#
# Revision: 0
# Processed by: cddbd v1.5.2PL0 Copyright (c) Steve Scherf et al.
# Submitted via: dBpowerAMP V4.0
#
DISCID=380f9914
DTITLE=Jimmy Dean - 20 Great Story Songs
DYEAR=1999
DGENRE=Country
TTITLE0=Big John
TTITLE1=Old Rivers
TTITLE2=IOU
TTITLE3=To A Sleeping Beauty
TTITLE4=Ringo
TTITLE5=The Farmer And The Lord
TTITLE6=Steal Away
TTITLE7=Oklahoma Bill
TTITLE8=Freckles
TTITLE9=Mama Sang A Song
TTITLE10=Drinking From My Saucer
TTITLE11=Trouble In Amen Corner
TTITLE12=Sunday Mornin Comin' Down
TTITLE13=The Man In The Glass
TTITLE14=Old Dogs, Children, And Watermelon Wine
TTITLE15=Please Pass The Biscuits
TTITLE16=Frilly Shirts
TTITLE17=The Day I jumped From Uncle Harvey's Plane
TTITLE18=Slow John Fairburn
TTITLE19=The Touch Of The Master's Hand
EXTD=
EXTT0=
EXTT1=
EXTT2=
EXTT3=
EXTT4=
EXTT5=
EXTT6=
EXTT7=
EXTT8=
EXTT9=
EXTT10=
EXTT11=
EXTT12=
EXTT13=
EXTT14=
EXTT15=
EXTT16=
EXTT17=
EXTT18=
EXTT19=
PLAYORDER=
